HIERARCHY
ROOT Hips
{
  OFFSET 0.000000 0.000000 0.000000
  CHANNELS 6 Xposition Yposition Zposition Xrotation Yrotation Zrotation
  JOINT Spine
  {
    OFFSET 1.602333 -23.943604 -2.409543
    CHANNELS 3 Xrotation Yrotation Zrotation
    JOINT Chest
    {
      OFFSET 1.602333 -23.943604 -2.409543
      CHANNELS 3 Xrotation Yrotation Zrotation
      JOINT Neck
      {
        OFFSET 3.806094 -17.923844 -5.988769
        CHANNELS 3 Xrotation Yrotation Zrotation
        JOINT Head
        {
          OFFSET 6.327906 5.395311 12.000731
          CHANNELS 3 Xrotation Yrotation Zrotation
          End Site
          {
            OFFSET 0.0 5.0 2.0
          }
        }
      }
      JOINT LeftShoulder
      {
        OFFSET 15.502173 1.195735 6.811843
        CHANNELS 3 Xrotation Yrotation Zrotation
        JOINT LeftArm
        {
          OFFSET 3.049198 17.579728 -11.048325
          CHANNELS 3 Xrotation Yrotation Zrotation
          JOINT LeftForeArm
          {
            OFFSET 2.612628 -12.912878 -19.404069
            CHANNELS 3 Xrotation Yrotation Zrotation
            JOINT LeftHand
            {
              OFFSET -8.000000 0.000000 3.000000
              CHANNELS 3 Xrotation Yrotation Zrotation
              End Site
              {
                OFFSET -3.0 0.0 2.0
              }
            }
          }
        }
      }
      JOINT RightShoulder
      {
        OFFSET -15.502173 -1.195735 -6.811843
        CHANNELS 3 Xrotation Yrotation Zrotation
        JOINT RightArm
        {
          OFFSET 1.860282 20.699400 -12.838847
          CHANNELS 3 Xrotation Yrotation Zrotation
          JOINT RightForeArm
          {
            OFFSET 18.567713 -8.436623 -13.447486
            CHANNELS 3 Xrotation Yrotation Zrotation
            JOINT RightHand
            {
              OFFSET 8.000000 0.000000 3.000000
              CHANNELS 3 Xrotation Yrotation Zrotation
              End Site
              {
                OFFSET 3.0 0.0 2.0
              }
            }
          }
        }
      }
    }
  }
  JOINT LeftUpLeg
  {
    OFFSET 12.055773 0.411694 2.557491
    CHANNELS 3 Xrotation Yrotation Zrotation
    JOINT LeftLeg
    {
      OFFSET 12.719119 36.398606 -2.685860
      CHANNELS 3 Xrotation Yrotation Zrotation
      JOINT LeftFoot
      {
        OFFSET 0.000000 -8.000000 5.000000
        CHANNELS 3 Xrotation Yrotation Zrotation
        JOINT LeftToeBase
        {
          OFFSET 0.000000 -1.000000 8.000000
          CHANNELS 3 Xrotation Yrotation Zrotation
          End Site
          {
            OFFSET 0.0 -1.0 3.0
          }
        }
      }
    }
  }
  JOINT RightUpLeg
  {
    OFFSET -12.055773 -0.411694 -2.557491
    CHANNELS 3 Xrotation Yrotation Zrotation
    JOINT RightLeg
    {
      OFFSET -15.729471 35.705056 0.246896
      CHANNELS 3 Xrotation Yrotation Zrotation
      JOINT RightFoot
      {
        OFFSET 0.000000 -8.000000 5.000000
        CHANNELS 3 Xrotation Yrotation Zrotation
        JOINT RightToeBase
        {
          OFFSET 0.000000 -1.000000 8.000000
          CHANNELS 3 Xrotation Yrotation Zrotation
          End Site
          {
            OFFSET 0.0 -1.0 3.0
          }
        }
      }
    }
  }
}
MOTION
Frames: 14
Frame Time: 0.066667
0.000000 0.000000 0.000000 0.000000 0.000000 0.000000 0.000000 0.000000 0.000000 0.000000 0.000000 0.000000 -113.194862 47.151024 -66.988482 0.000000 0.000000 0.000000 0.000000 0.000000 0.000000 0.000000 0.000000 0.000000 -5.153205 -44.740790 92.286858 0.000000 0.000000 0.000000 0.000000 0.000000 0.000000 0.000000 0.000000 0.000000 2.919266 32.195882 -29.469074 0.000000 0.000000 0.000000 0.000000 0.000000 0.000000 -102.775866 19.757346 2.310973 -60.000000 29.748452 -16.787896 0.000000 0.000000 0.000000 0.000000 0.000000 0.000000 -91.321012 -32.903527 -7.388869 -56.941731 -30.000000 15.978368 0.000000 0.000000 0.000000
0.198669 0.199667 1.000000 0.000675 -0.056753 0.005940 1.465953 0.056411 0.368146 0.343439 -0.770763 -0.638484 -112.349643 47.465653 -69.032763 0.000000 0.000000 0.000000 1.076767 -2.019525 -2.994196 2.489050 1.657921 -0.720344 -7.966696 -46.691110 91.747191 0.000000 0.000000 0.000000 1.024686 0.200164 0.479773 0.686042 2.814573 -0.772894 1.783404 36.050093 -30.808279 0.000000 0.000000 0.000000 -6.540101 2.157121 -1.015038 -106.512578 21.273897 1.783759 -60.000000 29.929140 -15.624426 0.000000 0.000000 0.000000 1.023242 0.436804 0.799548 -92.250045 -32.430891 -6.995597 -59.551375 -30.000000 16.161726 0.000000 0.000000 0.000000
0.389418 0.397339 2.000000 0.125815 -0.822228 -0.446438 3.262078 -0.062546 2.174704 -0.202386 -2.661227 0.885938 -111.601751 47.651732 -68.890618 0.000000 0.000000 0.000000 6.611140 -2.039992 -1.702216 -1.015445 0.686508 -0.602730 -4.575380 -44.391289 91.427922 0.000000 0.000000 0.000000 3.538651 1.177146 2.570981 2.972528 2.397902 2.547364 1.228388 37.255158 -27.740530 0.000000 0.000000 0.000000 -4.808571 0.135456 -13.248579 -102.395683 33.106375 4.057686 -60.000000 30.000000 -25.349865 0.000000 0.000000 0.000000 1.238772 0.624687 -3.918403 -85.189635 -25.795092 -7.217986 -60.000000 -30.000000 19.376192 0.000000 0.000000 0.000000
0.564642 0.591040 3.000000 0.218827 -0.862237 -0.863467 7.850893 0.485172 0.261829 1.230416 -1.494799 -2.475341 -105.026243 48.764864 -63.049182 0.000000 0.000000 0.000000 12.501056 -3.232555 -2.487772 11.129081 1.325483 0.703500 -27.378536 -57.243929 97.226704 0.000000 0.000000 0.000000 9.527581 0.048759 1.693714 1.956001 3.816889 0.350801 1.385793 38.091861 -38.945975 0.000000 0.000000 0.000000 -4.502055 0.079265 -13.132359 -99.174149 36.182304 5.528619 -60.000000 30.000000 -23.408561 0.000000 0.000000 0.000000 7.976118 3.955037 -4.736072 -83.494864 -27.062754 -8.023465 -60.000000 -30.000000 18.023637 0.000000 0.000000 0.000000
0.717356 0.778837 4.000000 0.358661 1.258105 -1.991156 6.645058 1.273002 -5.142468 3.526336 4.269762 -9.371098 -114.166913 46.233892 -49.203270 0.000000 0.000000 0.000000 7.720684 -5.268472 -7.501925 29.021764 2.713210 2.458130 -122.967008 -80.657317 138.611820 0.000000 0.000000 0.000000 11.874628 -3.942471 -6.088675 3.147961 9.776041 -1.348656 2.973528 35.307459 -43.876985 0.000000 0.000000 0.000000 -9.384529 1.291129 -12.486219 -96.212158 33.606500 6.026725 -60.000000 30.000000 -21.714293 0.000000 0.000000 0.000000 8.024765 3.870273 -3.575539 -88.233594 -23.472919 -5.876657 -60.000000 -30.000000 19.673058 0.000000 0.000000 0.000000
0.841471 0.958851 5.000000 0.577234 1.256284 -3.072563 6.080649 1.398933 -6.361137 3.665118 2.322349 -9.024868 -114.345957 46.458925 -56.112413 0.000000 0.000000 0.000000 6.008638 -5.917041 -8.931250 27.232539 -0.078685 3.246567 -70.917297 -72.094113 111.466378 0.000000 0.000000 0.000000 11.383580 -1.426264 -0.939556 2.910405 7.031039 -0.198390 2.877586 34.348051 -37.220386 0.000000 0.000000 0.000000 -17.146347 2.841014 -13.769443 -102.255043 35.214559 4.377523 -60.000000 30.000000 -19.058503 0.000000 0.000000 0.000000 7.290887 3.490709 -3.258969 -88.995598 -24.216827 -5.895422 -60.000000 -30.000000 16.845378 0.000000 0.000000 0.000000
0.932039 1.129285 6.000000 0.795571 1.163108 -4.120321 6.585940 1.375907 -5.824740 3.393788 1.261882 -8.056847 -105.066002 48.676247 -62.213661 0.000000 0.000000 0.000000 6.673215 -5.075255 -7.289728 23.618487 -2.397016 3.800373 -106.905205 -62.664962 154.687496 0.000000 0.000000 0.000000 8.951290 -1.762961 -1.928420 2.892362 6.879792 -0.139250 1.400487 37.869401 -36.872944 0.000000 0.000000 0.000000 -16.167038 2.495701 -14.324334 -103.878481 35.454296 3.884348 -60.000000 30.000000 -20.079127 0.000000 0.000000 0.000000 6.103951 3.020032 -4.563546 -86.113849 -24.619614 -6.663559 -60.000000 -30.000000 16.913038 0.000000 0.000000 0.000000
0.985450 1.288435 7.000000 0.975922 0.777097 -4.865008 5.928922 0.586059 -1.216782 2.320546 -1.620779 -4.853545 -102.095465 49.660232 -65.318700 0.000000 0.000000 0.000000 6.732424 -3.550484 -4.452731 17.494648 -2.753694 3.440770 -88.456892 -58.670204 152.643274 0.000000 0.000000 0.000000 5.754504 -1.666073 -2.110825 4.828735 4.527050 3.717926 1.524422 36.292208 -27.739292 0.000000 0.000000 0.000000 -18.562563 2.316663 -17.285640 -106.517879 37.450353 3.217002 -60.000000 30.000000 -22.041563 0.000000 0.000000 0.000000 3.895626 2.070931 -7.228291 -80.044418 -25.527376 -8.405405 -60.000000 -30.000000 21.404958 0.000000 0.000000 0.000000
0.999574 1.434712 8.000000 1.151169 -0.719546 -5.153613 4.730304 0.122598 1.370614 1.802968 -7.366185 -2.544462 -102.572440 49.306390 -63.128237 0.000000 0.000000 0.000000 11.820635 -2.773617 -1.722503 10.539215 -5.822255 4.514814 -23.685801 -48.935593 130.568451 0.000000 0.000000 0.000000 5.355102 -1.786815 -2.371991 5.940886 3.943853 5.495074 0.703260 38.286963 -21.687328 0.000000 0.000000 0.000000 -23.059808 2.193890 -20.883207 -111.870544 41.314091 1.553369 -60.000000 30.000000 -19.950552 0.000000 0.000000 0.000000 3.177384 1.743567 -8.285836 -76.595083 -27.345209 -9.954465 -60.000000 -30.000000 22.609245 0.000000 0.000000 0.000000
0.973848 1.566654 9.000000 1.319547 -1.117278 -5.772367 7.372869 -0.011652 3.062817 0.782504 -9.275781 -0.179194 -91.701221 50.019360 -53.659965 0.000000 0.000000 0.000000 8.307194 -1.283086 0.183617 10.142851 -5.394045 4.256023 -25.028195 -49.986139 127.078407 0.000000 0.000000 0.000000 7.435997 -3.083904 -4.591469 5.586593 1.399357 6.589711 1.300576 36.325258 -23.945248 0.000000 0.000000 0.000000 -25.665920 1.218498 -25.522686 -113.109130 36.126508 0.939496 -60.000000 30.000000 -22.039815 0.000000 0.000000 0.000000 2.895725 1.566880 -7.597295 -75.000993 -27.198731 -10.333217 -60.000000 -30.000000 24.076716 0.000000 0.000000 0.000000
0.909297 1.682942 10.000000 1.346844 -0.762762 -6.029026 13.550936 0.499550 1.899912 1.135643 -5.773203 -1.457644 -92.001395 50.167200 -54.813825 0.000000 0.000000 0.000000 15.450496 -2.134738 0.774604 16.597154 -11.163659 7.434538 -78.914579 -45.741140 172.269990 0.000000 0.000000 0.000000 8.005235 -1.355361 -1.262906 5.138594 0.204226 6.765717 -0.686211 42.950387 -30.995764 0.000000 0.000000 0.000000 -21.816091 1.061097 -24.356910 -109.672730 37.946463 2.173588 -60.000000 30.000000 -25.351154 0.000000 0.000000 0.000000 5.530703 2.782592 -5.212479 -80.306415 -26.112335 -8.537304 -60.000000 -30.000000 20.234473 0.000000 0.000000 0.000000
0.808496 1.782415 11.000000 1.284903 0.643178 -6.302665 16.799887 1.386646 -0.938179 0.850632 1.346126 -2.218336 -93.482347 48.788923 -47.806216 0.000000 0.000000 0.000000 12.057787 -1.650124 0.652235 19.364214 -11.603045 7.620613 -95.031110 -49.615755 168.960035 0.000000 0.000000 0.000000 10.143014 -0.451714 0.823428 8.053890 7.936141 5.882383 -3.705004 49.662255 -33.893906 0.000000 0.000000 0.000000 -10.711682 0.307005 -20.258803 -95.600886 33.374279 6.171156 -60.000000 30.000000 -23.247321 0.000000 0.000000 0.000000 6.537871 3.127796 -3.207506 -84.683719 -24.513099 -6.966644 -60.000000 -30.000000 19.412735 0.000000 0.000000 0.000000
0.675463 1.864078 12.000000 1.183116 1.853831 -6.322335 13.155915 1.738229 -3.842030 0.765479 5.623717 -3.026570 -86.765731 48.235574 -40.787920 0.000000 0.000000 0.000000 25.648203 -4.768093 -2.359602 18.965083 -17.188093 10.248684 -49.991758 -52.678606 144.896461 0.000000 0.000000 0.000000 8.535000 0.908938 3.146487 8.647538 8.240331 6.452572 -0.246718 41.917155 -25.848241 0.000000 0.000000 0.000000 -2.972961 -0.513751 -15.708354 -96.251520 36.212531 6.511241 -60.000000 30.000000 -23.213620 0.000000 0.000000 0.000000 5.854628 2.800982 -3.182959 -88.932011 -16.572788 -4.013922 -60.000000 -30.000000 18.554312 0.000000 0.000000 0.000000
0.515501 1.927116 13.000000 1.231402 1.832474 -6.556558 8.868559 1.412704 -4.506268 1.354264 3.159085 -3.830565 -90.700648 49.075624 -47.426891 0.000000 0.000000 0.000000 16.950339 -3.865214 -2.674972 12.629590 -12.417203 8.129610 -37.678143 -53.568038 129.726737 0.000000 0.000000 0.000000 5.746560 0.130348 1.142247 7.503711 8.585286 4.839425 -0.462876 42.499613 -27.929528 0.000000 0.000000 0.000000 -2.472006 -0.477583 -14.204129 -99.221112 39.246948 6.016109 -60.000000 30.000000 -23.120330 0.000000 0.000000 0.000000 5.555973 2.679402 -3.489131 -93.231341 -13.073498 -2.642087 -60.000000 -27.812255 14.114186 0.000000 0.000000 0.000000
